<svg width="85" height="95" viewBox="0 0 85 95" fill="none" xmlns="http://www.w3.org/2000/svg">
<path d="M14.8639 86.522C17.9689 84.8501 18.4173 79.6525 15.8653 74.913C13.3133 70.1734 8.72734 67.6866 5.62225 69.3585C2.51717 71.0304 2.0688 76.2279 4.6208 80.9675C7.1728 85.7071 11.7588 88.1939 14.8639 86.522Z" stroke="white" stroke-width="2" stroke-linejoin="round"/>
<path d="M3.07715 73.4199C3.07715 68.6966 9.60112 65.8525 13.618 67.57C17.6349 69.2876 20.8946 74.5142 20.8946 79.2375C20.8946 83.9608 14.2598 88.2131 10.2383 86.4955" stroke="white" stroke-width="2" stroke-linejoin="round"/>
<path d="M75.4693 49.3198C78.5744 47.6479 79.0228 42.4504 76.4708 37.7108C73.9188 32.9712 69.3328 30.4844 66.2277 32.1563C63.1226 33.8282 62.6743 39.0258 65.2263 43.7654C67.7783 48.5049 72.3642 50.9918 75.4693 49.3198Z" stroke="white" stroke-width="2" stroke-linejoin="round"/>
<path d="M70.8467 49.3002C74.8636 51.0178 81.503 46.7654 81.503 42.0421C81.503 37.3188 78.2433 32.0969 74.2264 30.3747C70.2095 28.6571 63.6855 31.5013 63.6855 36.2246" stroke="white" stroke-width="2" stroke-linejoin="round"/>
<path d="M63.1632 93.9464C65.6366 93.9464 67.6418 91.9413 67.6418 89.4679C67.6418 86.9944 65.6366 84.9893 63.1632 84.9893C60.6897 84.9893 58.6846 86.9944 58.6846 89.4679C58.6846 91.9413 60.6897 93.9464 63.1632 93.9464Z" stroke="white" stroke-width="2" stroke-linejoin="round"/>
<path d="M9.59182 67.0661C9.59182 67.0661 6.45219 46.3307 16.9192 28.9981C24.5882 17.3399 31.6247 5.14612 47.1197 1.5771C51.589 0.547486 56.3308 0.852214 60.4631 2.84219C66.3776 5.69556 70.4222 11.6424 69.725 31.6437" stroke="white" stroke-width="2" stroke-linejoin="round"/>
<path d="M15.912 68.9914C15.912 68.9914 14.827 47.9605 25.8804 29.9446C35.7194 13.9094 46.879 4.59203 62.7295 4.17188C62.7295 4.17188 76.4839 9.18144 76.4839 31.8283" stroke="white" stroke-width="2" stroke-linejoin="round"/>
<path d="M65.915 85.9361L79.1569 76.9743C79.1569 76.9743 74.8214 58.7598 74.2674 49.6826" stroke="white" stroke-width="2" stroke-linejoin="round"/>
<path d="M67.6426 89.4687L83.3454 78.7894L77.9249 47.9102" stroke="white" stroke-width="2" stroke-linejoin="round"/>
<path d="M72.1867 43.223C73.0848 42.7395 73.214 41.2354 72.4754 39.8636C71.7367 38.4918 70.4099 37.7717 69.5118 38.2553C68.6138 38.7389 68.4845 40.2429 69.2232 41.6147C69.9618 42.9865 71.2886 43.7066 72.1867 43.223Z" stroke="white" stroke-width="2" stroke-linejoin="round"/>
</svg>
