<svg width="94" height="88" viewBox="0 0 94 88" fill="none" xmlns="http://www.w3.org/2000/svg">
<path d="M62.2206 70.3012C62.49 70.3012 62.7548 70.2099 62.974 70.0319C63.3529 69.7168 63.5036 69.2009 63.3392 68.7352L60.7869 61.3021C60.6956 61.0327 60.5084 60.8044 60.2573 60.6629L55.3034 57.8001C54.9382 57.5901 54.4862 57.5901 54.1209 57.8001C53.7556 58.0101 53.5273 58.4028 53.5273 58.8228V64.7858C53.5273 65.2104 53.7511 65.5985 54.1209 65.8085L61.6271 70.1414C61.8097 70.2464 62.0151 70.3012 62.2206 70.3012Z" stroke="white" stroke-width="2" stroke-miterlimit="10"/>
<path d="M74.7307 35.6653L74.2605 31.4283C74.2605 30.2868 73.4569 28.9034 72.4615 28.3235L26.8173 1.9698C25.822 1.39908 1.14844 14.8499 1.14844 16.0005L1.38129 41.0347V16.5027C1.38129 15.3613 2.18487 14.8956 3.18022 15.4617L48.8244 41.8155C49.8198 42.3953 50.6234 43.7833 50.6234 44.9202L50.9521 49.2394" stroke="white" stroke-width="2" stroke-linecap="round" stroke-linejoin="round"/>
<path d="M3.18076 15.4617C2.18542 14.8909 1.38184 15.3612 1.38184 16.5027V41.0347" stroke="white" stroke-width="2" stroke-linecap="round" stroke-linejoin="round"/>
<path d="M50.9521 49.2437L60.8736 55.0286C61.5357 55.4121 62.1475 56.1791 62.4488 57.0329L86.2274 43.4543C85.9215 42.6005 85.3143 41.8334 84.6523 41.4499L74.7308 35.665L52.3949 48.399L50.9521 49.2437Z" stroke="white" stroke-width="2" stroke-linecap="round" stroke-linejoin="round"/>
<path d="M62.4492 57.0328L68.9326 74.6202L92.7113 61.0415L86.2279 43.4541L62.4492 57.0328Z" stroke="white" stroke-width="2" stroke-linecap="round" stroke-linejoin="round"/>
<path d="M68.5495 86.6698C70.9602 86.2086 92.9217 73.0044 92.9217 71.8857V62.156C92.9217 61.809 92.8441 61.4255 92.7071 61.042L68.9284 74.6207C69.0654 75.0042 69.143 75.3877 69.143 75.7347V85.4644C69.143 86.0854 68.9193 86.5008 68.5449 86.6698H68.5495Z" stroke="white" stroke-width="2" stroke-linecap="round" stroke-linejoin="round"/>
<path d="M50.2526 77.9629C50.2526 80.4102 51.983 83.4008 54.1061 84.6244C55.065 85.1769 55.9416 85.2865 56.6173 84.9943C56.6402 84.9943 56.6767 84.9806 56.6995 84.9714C57.4803 84.597 57.9597 83.7113 57.9597 82.4009C57.9597 79.9536 56.2292 76.9493 54.1061 75.7257C53.193 75.1961 52.3529 75.0773 51.6908 75.3285H51.6771C51.3164 75.5431 51.0151 75.7714 50.8005 75.9905C50.6681 76.1457 50.5722 76.3375 50.4992 76.543V76.5567C50.3302 76.9539 50.248 77.4196 50.248 77.9629H50.2526Z" stroke="white" stroke-width="2" stroke-linecap="round" stroke-linejoin="round"/>
<path d="M11.111 55.1289C11.111 57.5762 12.8414 60.5668 14.9645 61.7904C15.9234 62.3429 16.8 62.4525 17.4757 62.1603C17.4986 62.1603 17.5351 62.1466 17.5579 62.1374C18.3387 61.763 18.8181 60.8773 18.8181 59.5669C18.8181 57.1196 17.0876 54.1153 14.9645 52.8917C14.0514 52.3621 13.2113 52.2434 12.5492 52.4945H12.5355C12.1748 52.7091 11.8735 52.9374 11.6589 53.1565C11.5265 53.3118 11.4306 53.5035 11.3576 53.709V53.7227C11.1886 54.1199 11.1064 54.5856 11.1064 55.1289H11.111Z" stroke="white" stroke-width="2" stroke-linecap="round" stroke-linejoin="round"/>
<path d="M1.35449 41.2363V46.3272C1.35449 47.4778 2.1672 48.884 3.15798 49.4593L10.8376 53.8973C11.3992 52.3769 12.842 51.8244 14.577 52.6143C14.7368 52.6828 14.9058 52.7604 15.0747 52.8608C17.0334 53.9977 18.6999 56.4085 19.3209 58.7827L21.8549 60.2483L49.9939 76.4934C50.5555 74.9867 51.9846 74.4342 53.7196 75.2104C53.8885 75.2789 54.0574 75.3656 54.2264 75.4706C56.1988 76.5984 57.8516 79.0046 58.4725 81.3925L61.0066 82.8444L67.3576 86.5153C67.7959 86.7755 68.2114 86.8212 68.5173 86.6842C68.5401 86.6842 68.5492 86.6842 68.5629 86.6751C68.9328 86.5062 69.1611 86.0907 69.1611 85.4697V75.74C69.1611 75.393 69.0834 75.0095 68.9465 74.626L62.463 57.0385C62.1571 56.1847 61.5499 55.4177 60.8878 55.0342L50.9664 49.2493V69.8867L1.36819 41.2455L1.35449 41.2363Z" stroke="white" stroke-width="2" stroke-linecap="round" stroke-linejoin="round"/>
</svg>
