<svg width="85" height="84" viewBox="0 0 85 84" fill="none" xmlns="http://www.w3.org/2000/svg">
<path d="M76.3471 47.7666C77.1268 47.7666 77.8746 48.0763 78.426 48.6277C78.9774 49.1791 79.2871 49.9269 79.2871 50.7066V75.3774C79.4005 78.7878 78.9889 81.0264 77.4643 82.4334C76.0447 83.7396 73.9867 84.1134 71.3197 83.9706H13.2043C10.4995 83.8362 8.3995 82.74 7.4251 80.5266C6.7783 79.0692 6.4759 77.3472 6.4759 75.369V50.7024C6.4759 49.9227 6.78565 49.1749 7.33701 48.6235C7.88836 48.0722 8.63616 47.7624 9.4159 47.7624C10.1956 47.7624 10.9434 48.0722 11.4948 48.6235C12.0462 49.1749 12.3559 49.9227 12.3559 50.7024V75.369C12.3615 76.3462 12.4595 77.133 12.6499 77.7294L12.8011 78.141L12.7885 78.099C12.7927 78.0444 12.9145 78.0654 13.3429 78.0906H71.4709C72.4999 78.1494 73.1551 78.0906 73.3861 78.0864L73.4029 78.0822C73.3483 77.8596 73.4533 76.9482 73.4029 75.4698V50.7024C73.4029 50.316 73.4791 49.9333 73.6271 49.5763C73.7751 49.2194 73.992 48.8951 74.2655 48.622C74.5389 48.349 74.8635 48.1325 75.2207 47.985C75.5779 47.8375 75.9607 47.7619 76.3471 47.7624M43.8223 0C44.9311 0 45.9223 0.4368 46.8547 1.2474L83.0797 35.4312C83.3654 35.6952 83.5958 36.0132 83.7577 36.3669C83.9196 36.7206 84.0097 37.1029 84.0228 37.4917C84.0358 37.8804 83.9716 38.2679 83.8339 38.6317C83.6961 38.9954 83.4876 39.3282 83.2203 39.6108C82.953 39.8934 82.6323 40.1201 82.2767 40.2779C81.9212 40.4356 81.5378 40.5212 81.149 40.5298C80.7601 40.5383 80.3734 40.4696 80.0112 40.3276C79.6491 40.1856 79.3187 39.9732 79.0393 39.7026L43.6879 6.3378L4.8631 39.7908C4.27273 40.3004 3.50409 40.5546 2.72629 40.4975C1.94848 40.4404 1.22521 40.0767 0.715602 39.4863C0.205988 38.8959 -0.0482286 38.1273 0.00887618 37.3495C0.065981 36.5717 0.42973 35.8484 1.0201 35.3388L40.6933 1.1634L41.0545 0.8946C41.9533 0.3318 42.8521 0.0042 43.8265 0.0042" fill="white"/>
</svg>
