<svg width="90" height="90" viewBox="0 0 90 90" fill="none" xmlns="http://www.w3.org/2000/svg">
<circle cx="45" cy="45" r="44.5" stroke="white"/>
<path d="M42.4797 49.8858L47.3789 44.908C47.4863 44.7994 47.5466 44.6528 47.5466 44.5C47.5466 44.3473 47.4863 44.2006 47.3789 44.092L42.4808 39.1142C42.3734 39.0049 42.3132 38.8578 42.3132 38.7046C42.3132 38.5514 42.3734 38.4043 42.4808 38.295C42.5332 38.2412 42.5959 38.1984 42.6652 38.1692C42.7344 38.14 42.8088 38.125 42.884 38.125C42.9591 38.125 43.0335 38.14 43.1028 38.1692C43.172 38.1984 43.2347 38.2412 43.2872 38.295L48.1853 43.2718C48.5072 43.5996 48.6875 44.0406 48.6875 44.5C48.6875 44.9594 48.5072 45.4005 48.1853 45.7283L43.2872 50.705C43.2347 50.759 43.1719 50.8019 43.1026 50.8312C43.0332 50.8605 42.9587 50.8756 42.8834 50.8756C42.8082 50.8756 42.7336 50.8605 42.6643 50.8312C42.5949 50.8019 42.5322 50.759 42.4797 50.705C42.3723 50.5957 42.3121 50.4487 42.3121 50.2954C42.3121 50.1422 42.3723 49.9951 42.4797 49.8858Z" fill="white"/>
</svg>
