<svg width="14" height="22" viewBox="0 0 14 22" fill="none" xmlns="http://www.w3.org/2000/svg">
<path d="M0 2.75C0 2.02065 0.294999 1.32118 0.820101 0.805456C1.3452 0.289731 2.05739 0 2.8 0L11.2 0C11.9426 0 12.6548 0.289731 13.1799 0.805456C13.705 1.32118 14 2.02065 14 2.75V19.25C14 19.9793 13.705 20.6788 13.1799 21.1945C12.6548 21.7103 11.9426 22 11.2 22H2.8C2.05739 22 1.3452 21.7103 0.820101 21.1945C0.294999 20.6788 0 19.9793 0 19.25V2.75ZM8.4 17.875C8.4 17.5103 8.2525 17.1606 7.98995 16.9027C7.7274 16.6449 7.3713 16.5 7 16.5C6.6287 16.5 6.2726 16.6449 6.01005 16.9027C5.7475 17.1606 5.6 17.5103 5.6 17.875C5.6 18.2397 5.7475 18.5894 6.01005 18.8473C6.2726 19.1051 6.6287 19.25 7 19.25C7.3713 19.25 7.7274 19.1051 7.98995 18.8473C8.2525 18.5894 8.4 18.2397 8.4 17.875Z" fill="white"/>
</svg>
