<svg width="90" height="90" viewBox="0 0 90 90" fill="none" xmlns="http://www.w3.org/2000/svg">
<circle cx="45" cy="45" r="44.5" stroke="white"/>
<path d="M48.5203 49.8858L43.6211 44.908C43.5137 44.7994 43.4534 44.6528 43.4534 44.5C43.4534 44.3473 43.5137 44.2006 43.6211 44.092L48.5192 39.1142C48.6266 39.0049 48.6868 38.8578 48.6868 38.7046C48.6868 38.5514 48.6266 38.4043 48.5192 38.295C48.4668 38.2412 48.4041 38.1984 48.3348 38.1692C48.2656 38.14 48.1912 38.125 48.116 38.125C48.0409 38.125 47.9665 38.14 47.8972 38.1692C47.828 38.1984 47.7653 38.2412 47.7128 38.295L42.8147 43.2718C42.4928 43.5996 42.3125 44.0406 42.3125 44.5C42.3125 44.9594 42.4928 45.4005 42.8147 45.7283L47.7128 50.705C47.7653 50.759 47.8281 50.8019 47.8974 50.8312C47.9668 50.8605 48.0413 50.8756 48.1166 50.8756C48.1918 50.8756 48.2664 50.8605 48.3357 50.8312C48.4051 50.8019 48.4678 50.759 48.5203 50.705C48.6277 50.5957 48.6879 50.4487 48.6879 50.2954C48.6879 50.1422 48.6277 49.9951 48.5203 49.8858Z" fill="white"/>
</svg>
